<?xml version="1.0" standalone="no"?>
<!DOCTYPE svg PUBLIC "-//W3C//DTD SVG 20010904//EN"
 "http://www.w3.org/TR/2001/REC-SVG-20010904/DTD/svg10.dtd">
<svg version="1.0" xmlns="http://www.w3.org/2000/svg"
 width="5000.000000pt" height="500.000000pt" viewBox="0 0 500.000000 500.000000"
 preserveAspectRatio="xMidYMid meet">

<g transform="translate(0.000000,500.000000) scale(0.100000,-0.100000)"
fill="#000000" stroke="none">
<path d="M1571 2956 c-86 -92 103 -382 320 -492 88 -44 155 -53 189 -26 52 43
18 188 -69 293 -44 52 -68 44 -168 -54 -56 -55 -86 -78 -97 -74 -31 12 -15 42
63 122 100 101 104 119 45 163 -76 57 -142 86 -202 90 -51 3 -60 1 -81 -22z"/>
<path d="M1510 2345 c0 -90 295 -102 329 -13 5 13 8 24 7 25 -1 1 -20 -4 -41
-12 -53 -19 -191 -19 -245 0 -23 8 -44 15 -46 15 -2 0 -4 -7 -4 -15z"/>
</g>
</svg>
